HIERARCHY
ROOT Hips
{
  OFFSET 51.3266 96.2399 5.19764
  CHANNELS 6 Xposition Yposition Zposition Zrotation Xrotation Yrotation
  JOINT spine
  {
    OFFSET 0 8.13249 0.467659
    CHANNELS 3 Zrotation Xrotation Yrotation
    JOINT spine1
    {
      OFFSET 0 10.3498 0
      CHANNELS 3 Zrotation Xrotation Yrotation
      JOINT spine2
      {
        OFFSET 0 9.91699 0
        CHANNELS 3 Zrotation Xrotation Yrotation
        JOINT Neck
        {
          OFFSET 0 25.461 1.2139
          CHANNELS 3 Zrotation Xrotation Yrotation
          JOINT Head
          {
            OFFSET 0 7.69245 0
            CHANNELS 3 Zrotation Xrotation Yrotation
            End Site
            {
              OFFSET 0 18.62 -6.14063
            }
          }
        }
        JOINT RightShoulder
        {
          OFFSET -4.17575 10.7096 -0.581445
          CHANNELS 3 Zrotation Xrotation Yrotation
          JOINT RightArm
          {
            OFFSET 0 14.0466 0
            CHANNELS 3 Zrotation Xrotation Yrotation
            JOINT RightArmRoll
            {
              OFFSET 0 7.09098 0
              CHANNELS 3 Zrotation Xrotation Yrotation
              JOINT RightForeArm
              {
                OFFSET 0 20.6535 0
                CHANNELS 3 Zrotation Xrotation Yrotation
                JOINT RightForeArmRoll
                {
                  OFFSET 0 7.95718 0
                  CHANNELS 3 Zrotation Xrotation Yrotation
                  JOINT RightHand
                  {
                    OFFSET 0 15.9683 0
                    CHANNELS 3 Zrotation Xrotation Yrotation
                    End Site
                    {
                      OFFSET 0 0 0
                    }
                  }
                }
              }
            }
          }
        }
        JOINT LeftShoulder
        {
          OFFSET 4.17575 10.7096 -0.581445
          CHANNELS 3 Zrotation Xrotation Yrotation
          JOINT LeftArm
          {
            OFFSET 0 14.0466 0
            CHANNELS 3 Zrotation Xrotation Yrotation
            JOINT LeftArmRoll
            {
              OFFSET 0 7.09098 0
              CHANNELS 3 Zrotation Xrotation Yrotation
              JOINT LeftForeArm
              {
                OFFSET 0 20.6535 0
                CHANNELS 3 Zrotation Xrotation Yrotation
                JOINT LeftForeArmRoll
                {
                  OFFSET 0 7.95718 0
                  CHANNELS 3 Zrotation Xrotation Yrotation
                  JOINT LeftHand
                  {
                    OFFSET 0 15.9683 0
                    CHANNELS 3 Zrotation Xrotation Yrotation
                    End Site
                    {
                      OFFSET 0 0 0
                    }
                  }
                }
              }
            }
          }
        }
      }
    }
  }
  JOINT RightUpLeg
  {
    OFFSET -7.20834 -1.32182 -1.10884
    CHANNELS 3 Zrotation Xrotation Yrotation
    JOINT RightUpLegRoll
    {
      OFFSET 0 18.7238 0
      CHANNELS 3 Zrotation Xrotation Yrotation
      JOINT RightLeg
      {
        OFFSET 0 -23.1866 0
        CHANNELS 3 Zrotation Xrotation Yrotation
        JOINT RightLegRoll
        {
          OFFSET 0 23.2624 0
          CHANNELS 3 Zrotation Xrotation Yrotation
          JOINT RightFoot
          {
            OFFSET 0 19.3621 0
            CHANNELS 3 Zrotation Xrotation Yrotation
            JOINT RightToeBase
            {
              OFFSET 0 16.1857 0
              CHANNELS 3 Zrotation Xrotation Yrotation
              End Site
              {
                OFFSET 0.00686052 7.83863 -0.903522
              }
            }
          }
        }
      }
    }
  }
  JOINT LeftUpLeg
  {
    OFFSET 7.20834 -1.32182 -1.10884
    CHANNELS 3 Zrotation Xrotation Yrotation
    JOINT LeftUpLegRoll
    {
      OFFSET 0 18.7239 0
      CHANNELS 3 Zrotation Xrotation Yrotation
      JOINT LeftLeg
      {
        OFFSET 0 23.1865 0
        CHANNELS 3 Zrotation Xrotation Yrotation
        JOINT LeftLegRoll
        {
          OFFSET 0 23.4775 0
          CHANNELS 3 Zrotation Xrotation Yrotation
          JOINT LeftFoot
          {
            OFFSET 0 19.147 0
            CHANNELS 3 Zrotation Xrotation Yrotation
            JOINT LeftToeBase
            {
              OFFSET 0 16.1857 0
              CHANNELS 3 Zrotation Xrotation Yrotation
              End Site
              {
                OFFSET -0.0307459 7.83862 -0.903522
              }
            }
          }
        }
      }
    }
  }
}
MOTION
Frames: 9
Frame Time: 0.00208333
53.4679 95.9956 3.69196 -1.22629 -4.33087 -3.18903 0.434811 -0.752474 0.066383 0.855035 2.49798 0.0664263 0.855137 4.14295 0.0521319 -4.93392 12.055 -2.52726 2.96495 0.217344 -3.53828 57.723 -9.8979 -6.15126 114.738 20.7377 14.15 -1.24056e-006 1.02476e-006 -4.50596e-007 9.04937 0.0699965 -0.600997 7.51572e-006 -5.63955e-006 -3 8.02902 -4.95143 0.697671 -62.6213 -6.45914 4.18018 -109.034 20.4981 -4.39907 2.4501e-005 -1.5118e-006 5.12599e-006 -9.38817 7.62029 1.51178 3.06198e-006 1.79767e-006 3 -8.02902 -4.95144 -0.697668 172.336 3.08098 3.55063 180 7.01568e-015 179.02 179.477 12.3932 179.457 3.27169e-006 -1.13522e-006 0.0760599 -17.4541 68.5564 19.9634 8.13209 25.2387 -3.47836 -175.497 0.516102 -1.1727 4.5067e-006 -1.99009e-005 -0.989271 -2.30645 -13.143 0.262831 1.26754e-006 2.18775e-006 -0.147914 19.5167 71.3685 -22.6167 -8.12707 25.2332 3.48372 
53.466 95.9917 3.69733 -1.22175 -4.33463 -3.19252 0.434917 -0.752907 0.0663768 0.856592 2.49712 0.0670968 0.856647 4.14208 0.0527734 -4.93902 12.0653 -2.5284 2.96375 0.209711 -3.54107 57.7191 -9.89979 -6.15243 114.732 20.7346 14.1499 -1.24056e-006 1.02476e-006 -4.50596e-007 9.05165 0.0699961 -0.60102 7.51572e-006 -5.63955e-006 -3 8.02902 -4.95143 0.697671 -62.6362 -6.452 4.17672 -109.023 20.4922 -4.39731 2.4501e-005 -1.5118e-006 5.12599e-006 -9.39319 7.61017 1.51031 3.06198e-006 1.79767e-006 3 -8.02902 -4.95144 -0.697668 172.32 3.08588 3.56001 180 7.01568e-015 179.02 179.475 12.4081 179.457 3.27169e-006 -1.13522e-006 0.0760625 -17.4551 68.5613 19.9666 8.13209 25.2387 -3.47836 -175.512 0.522193 -1.16499 4.5067e-006 -1.99009e-005 -0.989895 -2.30707 -13.1615 0.262018 1.26754e-006 2.18775e-006 -0.14863 19.5374 71.3774 -22.6272 -8.12707 25.2332 3.48372 
53.4878 95.9914 3.69805 -1.21724 -4.33849 -3.19566 0.435043 -0.753285 0.0663652 0.858272 2.49636 0.0677649 0.858262 4.14133 0.0534112 -4.94454 12.075 -2.52974 2.9628 0.202404 -3.54414 57.7147 -9.9021 -6.15387 114.727 20.7316 14.1496 -1.24056e-006 1.02476e-006 -4.50596e-007 9.05406 0.0699956 -0.601036 7.51572e-006 -5.63955e-006 -3 8.02902 -4.95143 0.697671 -62.6514 -6.44484 4.17327 -109.013 20.4866 -4.39488 2.4501e-005 -1.5118e-006 5.12599e-006 -9.39836 7.60076 1.5089 3.06198e-006 1.79767e-006 3 -8.02902 -4.95144 -0.697668 172.304 3.09075 3.56942 180 7.01568e-015 179.02 179.474 12.4234 179.458 3.27169e-006 -1.13522e-006 0.0760663 -17.4563 68.5665 19.9698 8.13209 25.2387 -3.47836 -175.528 0.528397 -1.15737 4.5067e-006 -1.99009e-005 -0.990506 -2.30771 -13.1801 0.261185 1.26754e-006 2.18775e-006 -0.149328 19.5582 71.3864 -22.6378 -8.12707 25.2332 3.48372 
53.4938 95.9921 3.70395 -1.21274 -4.3424 -3.19857 0.435185 -0.753623 0.0663497 0.860039 2.49569 0.0684313 0.859951 4.14065 0.0540464 -4.95035 12.0844 -2.53121 2.96203 0.195324 -3.54739 57.71 -9.90471 -6.15551 114.722 20.7286 14.1489 -1.24056e-006 1.02476e-006 -4.50596e-007 9.05655 0.0699951 -0.601046 7.51572e-006 -5.63955e-006 -3 8.02902 -4.95143 0.697671 -62.667 -6.43767 4.16983 -109.002 20.4814 -4.39198 2.4501e-005 -1.5118e-006 5.12599e-006 -9.40364 7.59183 1.50752 3.06198e-006 1.79767e-006 3 -8.02902 -4.95144 -0.697668 172.288 3.09559 3.57886 180 7.01568e-015 179.02 179.473 12.4389 179.458 3.27169e-006 -1.13522e-006 0.0760711 -17.4575 68.5718 19.9732 8.13209 25.2387 -3.47836 -175.543 0.534681 -1.14983 4.5067e-006 -1.99009e-005 -0.991107 -2.30837 -13.199 0.260339 1.26754e-006 2.18775e-006 -0.150014 19.5789 71.3954 -22.6484 -8.12707 25.2332 3.48372 
53.5036 95.988 3.70527 -1.20826 -4.34636 -3.20134 0.435335 -0.753939 0.0663321 0.861855 2.49506 0.0690967 0.861682 4.14002 0.0546802 -4.95633 12.0935 -2.53276 2.96136 0.188375 -3.55075 57.7051 -9.9075 -6.15725 114.717 20.7256 14.1482 -1.24056e-006 1.02476e-006 -4.50596e-007 9.05909 0.0699946 -0.601054 7.51572e-006 -5.63955e-006 -3 8.02902 -4.95143 0.697671 -62.6828 -6.43049 4.16638 -108.991 20.4764 -4.38881 2.4501e-005 -1.5118e-006 5.12599e-006 -9.40898 7.58319 1.50617 3.06198e-006 1.79767e-006 3 -8.02902 -4.95144 -0.697668 172.273 3.10042 3.58831 180 7.01568e-015 179.02 179.471 12.4545 179.458 3.27169e-006 -1.13522e-006 0.0760763 -17.4588 68.5772 19.9766 8.13209 25.2387 -3.47836 -175.558 0.54101 -1.14232 4.5067e-006 -1.99009e-005 -0.991703 -2.30904 -13.2179 0.259486 1.26754e-006 2.18775e-006 -0.150694 19.5997 71.4044 -22.6591 -8.12707 25.2332 3.48372 
53.5208 95.986 3.6916 -1.20377 -4.35032 -3.20408 0.435487 -0.75425 0.0663139 0.863683 2.49444 0.0697619 0.863424 4.1394 0.0553136 -4.96235 12.1026 -2.53433 2.96072 0.181459 -3.55413 57.7001 -9.91033 -6.15902 114.713 20.7226 14.1473 -1.24056e-006 1.02476e-006 -4.50596e-007 9.06165 0.0699941 -0.601061 7.51572e-006 -5.63955e-006 -3 8.02902 -4.95143 0.697671 -62.6986 -6.4233 4.16294 -108.981 20.4714 -4.38557 2.4501e-005 -1.5118e-006 5.12599e-006 -9.41434 7.57461 1.50483 3.06198e-006 1.79767e-006 3 -8.02902 -4.95144 -0.697668 172.257 3.10524 3.59776 180 7.01568e-015 179.019 179.47 12.4701 179.459 3.27169e-006 -1.13522e-006 0.0760817 -17.4602 68.5827 19.98 8.13209 25.2387 -3.47836 -175.574 0.54735 -1.13482 4.5067e-006 -1.99009e-005 -0.992297 -2.30971 -13.2369 0.25863 1.26754e-006 2.18775e-006 -0.151372 19.6204 71.4134 -22.6697 -8.12707 25.2332 3.48372 
53.5289 95.9808 3.69701 -1.19928 -4.35426 -3.20688 0.435635 -0.754571 0.0662968 0.865486 2.4938 0.0704275 0.865145 4.13876 0.0559477 -4.96829 12.1118 -2.53586 2.96002 0.174477 -3.55746 57.6952 -9.91307 -6.16073 114.708 20.7195 14.1466 -1.24056e-006 1.02476e-006 -4.50596e-007 9.06417 0.0699936 -0.601069 7.51572e-006 -5.63955e-006 -3 8.02902 -4.95143 0.697671 -62.7143 -6.41612 4.1595 -108.97 20.4663 -4.38248 2.4501e-005 -1.5118e-006 5.12599e-006 -9.41967 7.5659 1.50347 3.06198e-006 1.79767e-006 3 -8.02902 -4.95144 -0.697668 172.241 3.11008 3.60721 180 7.01568e-015 179.019 179.468 12.4857 179.459 3.27169e-006 -1.13522e-006 0.0760868 -17.4615 68.5881 19.9834 8.13209 25.2387 -3.47836 -175.589 0.553667 -1.1273 4.5067e-006 -1.99009e-005 -0.992894 -2.31037 -13.2558 0.257778 1.26754e-006 2.18775e-006 -0.152053 19.6412 71.4224 -22.6803 -8.12707 25.2332 3.48372 
53.5445 95.9774 3.71266 -1.19478 -4.35816 -3.20986 0.435773 -0.754921 0.0662824 0.867228 2.4931 0.0710944 0.866813 4.13806 0.0565837 -4.97402 12.1213 -2.5373 2.9592 0.167333 -3.56066 57.6905 -9.9156 -6.16231 114.703 20.7165 14.146 -1.24056e-006 1.02476e-006 -4.50596e-007 9.06664 0.0699932 -0.601081 7.51572e-006 -5.63955e-006 -3 8.02902 -4.95143 0.697671 -62.7297 -6.40895 4.15606 -108.959 20.461 -4.37971 2.4501e-005 -1.5118e-006 5.12599e-006 -9.42492 7.55683 1.50209 3.06198e-006 1.79767e-006 3 -8.02902 -4.95144 -0.697668 172.225 3.11492 3.61664 180 7.01568e-015 179.019 179.467 12.5011 179.459 3.27169e-006 -1.13522e-006 0.0760913 -17.4627 68.5933 19.9868 8.13209 25.2387 -3.47836 -175.604 0.559928 -1.11973 4.5067e-006 -1.99009e-005 -0.993498 -2.31103 -13.2746 0.256936 1.26754e-006 2.18775e-006 -0.152742 19.662 71.4314 -22.691 -8.12707 25.2332 3.48372 
53.5442 95.9736 3.70994 -1.19027 -4.36199 -3.2131 0.435894 -0.755315 0.0662724 0.868872 2.49231 0.0717632 0.868397 4.13728 0.0572226 -4.97941 12.1312 -2.53857 2.95817 0.159928 -3.56364 57.6863 -9.91779 -6.16368 114.697 20.7135 14.1458 -1.24056e-006 1.02476e-006 -4.50596e-007 9.06901 0.0699927 -0.601099 7.51572e-006 -5.63955e-006 -3 8.02902 -4.95143 0.697671 -62.7449 -6.4018 4.1526 -108.949 20.4554 -4.37748 2.4501e-005 -1.5118e-006 5.12599e-006 -9.43005 7.54721 1.50066 3.06198e-006 1.79767e-006 3 -8.02902 -4.95144 -0.697668 172.209 3.1198 3.62605 180 7.01568e-015 179.019 179.466 12.5163 179.46 3.27169e-006 -1.13522e-006 0.0760947 -17.4638 68.5984 19.99 8.13209 25.2387 -3.47836 -175.62 0.566099 -1.11209 4.5067e-006 -1.99009e-005 -0.994113 -2.31167 -13.2932 0.256108 1.26754e-006 2.18775e-006 -0.153446 19.6828 71.4403 -22.7016 -8.12707 25.2332 3.48372 
